<?xml version="1.0" encoding="UTF-8" standalone="no"?>
<svg
   xmlns:dc="http://purl.org/dc/elements/1.1/"
   xmlns:cc="http://creativecommons.org/ns#"
   xmlns:rdf="http://www.w3.org/1999/02/22-rdf-syntax-ns#"
   xmlns:svg="http://www.w3.org/2000/svg"
   xmlns="http://www.w3.org/2000/svg"
   viewBox="0 0 706.66669 306.66666"
   height="306.66666"
   width="706.66669"
   xml:space="preserve"
   id="svg2"
   version="1.1"><metadata
     id="metadata8"><rdf:RDF><cc:Work
         rdf:about=""><dc:format>image/svg+xml</dc:format><dc:type
           rdf:resource="http://purl.org/dc/dcmitype/StillImage" /></cc:Work></rdf:RDF></metadata><defs
     id="defs6"><clipPath
       id="clipPath24"
       clipPathUnits="userSpaceOnUse"><path
         id="path22"
         d="M 0,230 H 530 V 0 H 0 Z" /></clipPath></defs><g
     transform="matrix(1.3333333,0,0,-1.3333333,0,306.66667)"
     id="g10"><text
       id="text14"
       style="font-variant:normal;font-weight:600;font-stretch:normal;font-size:65px;font-family:'Poppins SemiBold';-inkscape-font-specification:Poppins-SemiBold;writing-mode:lr-tb;fill:#373535;fill-opacity:1;fill-rule:nonzero;stroke:none"
       transform="matrix(1,0,0,-1,183.5811,91.4082)"><tspan
         id="tspan12"
         y="0"
         x="0 39.259998 83.004997 150.8 194.545 237.185">Samaha</tspan></text>
<path
       id="path16"
       style="fill:#2fa3dc;fill-opacity:1;fill-rule:nonzero;stroke:none"
       d="m 342.716,133.006 h 28.044 v 5.637 h -28.044 z" /><g
       id="g18"><g
         clip-path="url(#clipPath24)"
         id="g20"><g
           transform="translate(131.7933,144.4365)"
           id="g26"><path
             id="path28"
             style="fill:#373535;fill-opacity:1;fill-rule:nonzero;stroke:none"
             d="m 0,0 c 0,-1.105 0.895,-2 2,-2 h 23.007 c 1.105,0 2,0.895 2,2 v 4.954 c 0,1.104 -0.895,2 -2,2 H 2 c -1.105,0 -2,-0.896 -2,-2 z" /></g><path
           id="path30"
           style="fill:#373535;fill-opacity:1;fill-rule:nonzero;stroke:none"
           d="M 131.793,124.402 H 158.8 v 8.954 h -27.007 z" /><g
           transform="translate(131.7933,126.3831)"
           id="g32"><path
             id="path34"
             style="fill:#373535;fill-opacity:1;fill-rule:nonzero;stroke:none"
             d="m 0,0 c 0,-1.105 0.895,-2 2,-2 h 4.954 c 1.104,0 2,0.895 2,2 v 23.007 c 0,1.105 -0.896,2 -2,2 H 2 c -1.105,0 -2,-0.895 -2,-2 z" /></g><g
           transform="translate(149.8467,126.3831)"
           id="g36"><path
             id="path38"
             style="fill:#373535;fill-opacity:1;fill-rule:nonzero;stroke:none"
             d="m 0,0 c 0,-1.105 0.895,-2 2,-2 h 4.954 c 1.104,0 2,0.895 2,2 v 23.007 c 0,1.105 -0.896,2 -2,2 H 2 c -1.105,0 -2,-0.895 -2,-2 z" /></g><g
           transform="translate(149.8467,72.4375)"
           id="g40"><path
             id="path42"
             style="fill:#373535;fill-opacity:1;fill-rule:nonzero;stroke:none"
             d="m 0,0 c 0,-1.105 0.895,-2 2,-2 h 4.954 c 1.104,0 2,0.895 2,2 v 17.676 c 0,1.104 -0.896,2 -2,2 H 2 c -1.105,0 -2,-0.896 -2,-2 z" /></g><path
           id="path44"
           style="fill:#373535;fill-opacity:1;fill-rule:nonzero;stroke:none"
           d="m 131.806,70.437 h 8.954 v 27.007 h -8.954 z" /><path
           id="path46"
           style="fill:#373535;fill-opacity:1;fill-rule:nonzero;stroke:none"
           d="m 113.765,70.437 h 8.954 v 27.007 h -8.954 z" /><g
           transform="translate(95.7239,72.4375)"
           id="g48"><path
             id="path50"
             style="fill:#373535;fill-opacity:1;fill-rule:nonzero;stroke:none"
             d="m 0,0 c 0,-1.105 0.895,-2 2,-2 h 4.954 c 1.104,0 2,0.895 2,2 v 23.007 c 0,1.105 -0.896,2 -2,2 H 2 c -1.105,0 -2,-0.895 -2,-2 z" /></g><g
           transform="translate(77.6829,72.4375)"
           id="g52"><path
             id="path54"
             style="fill:#373535;fill-opacity:1;fill-rule:nonzero;stroke:none"
             d="m 0,0 c 0,-1.105 0.895,-2 2,-2 h 4.954 c 1.104,0 2,0.895 2,2 v 23.007 c 0,1.105 -0.896,2 -2,2 H 2 c -1.105,0 -2,-0.895 -2,-2 z" /></g><g
           transform="translate(77.6829,126.3831)"
           id="g56"><path
             id="path58"
             style="fill:#373535;fill-opacity:1;fill-rule:nonzero;stroke:none"
             d="m 0,0 c 0,-1.105 0.895,-2 2,-2 h 4.954 c 1.104,0 2,0.895 2,2 v 23.007 c 0,1.105 -0.896,2 -2,2 H 2 c -1.105,0 -2,-0.895 -2,-2 z" /></g><g
           transform="translate(131.8058,72.4375)"
           id="g60"><path
             id="path62"
             style="fill:#373535;fill-opacity:1;fill-rule:nonzero;stroke:none"
             d="m 0,0 c 0,-1.105 0.895,-2 2,-2 h 23.007 c 1.105,0 2,0.895 2,2 v 4.954 c 0,1.104 -0.895,2 -2,2 H 2 c -1.105,0 -2,-0.896 -2,-2 z" /></g><g
           transform="translate(108.3156,72.4375)"
           id="g64"><path
             id="path66"
             style="fill:#373535;fill-opacity:1;fill-rule:nonzero;stroke:none"
             d="m 0,0 c 0,-1.105 0.895,-2 2,-2 h 23.007 c 1.105,0 2,0.895 2,2 v 4.954 c 0,1.104 -0.895,2 -2,2 H 2 c -1.105,0 -2,-0.896 -2,-2 z" /></g><g
           transform="translate(77.6705,72.4375)"
           id="g68"><path
             id="path70"
             style="fill:#373535;fill-opacity:1;fill-rule:nonzero;stroke:none"
             d="m 0,0 c 0,-1.105 0.895,-2 2,-2 h 23.007 c 1.105,0 2,0.895 2,2 v 4.954 c 0,1.104 -0.895,2 -2,2 H 2 c -1.105,0 -2,-0.896 -2,-2 z" /></g><g
           transform="translate(98.1809,72.4375)"
           id="g72"><path
             id="path74"
             style="fill:#373535;fill-opacity:1;fill-rule:nonzero;stroke:none"
             d="m 0,0 c 0,-1.105 0.895,-2 2,-2 h 23.007 c 1.105,0 2,0.895 2,2 v 4.954 c 0,1.104 -0.895,2 -2,2 H 2 c -1.105,0 -2,-0.896 -2,-2 z" /></g><path
           id="path76"
           style="fill:#373535;fill-opacity:1;fill-rule:nonzero;stroke:none"
           d="m 77.67,88.491 h 27.007 v 8.954 H 77.67 Z" /><path
           id="path78"
           style="fill:#373535;fill-opacity:1;fill-rule:nonzero;stroke:none"
           d="m 77.67,106.437 h 45.048 v 8.954 H 77.67 Z" /><path
           id="path80"
           style="fill:#373535;fill-opacity:1;fill-rule:nonzero;stroke:none"
           d="m 77.683,124.402 h 47.505 v 8.954 H 77.683 Z" /><path
           id="path82"
           style="fill:#373535;fill-opacity:1;fill-rule:nonzero;stroke:none"
           d="m 131.806,106.437 h 8.954 v 8.954 h -8.954 z" /><path
           id="path84"
           style="fill:#2fa3dc;fill-opacity:1;fill-rule:nonzero;stroke:none"
           d="m 149.847,106.437 h 8.954 v 8.954 h -8.954 z" /><g
           transform="translate(78.5325,144.4365)"
           id="g86"><path
             id="path88"
             style="fill:#373535;fill-opacity:1;fill-rule:nonzero;stroke:none"
             d="m 0,0 c 0,-1.105 0.895,-2 2,-2 h 76.268 c 1.104,0 2,0.895 2,2 v 4.954 c 0,1.104 -0.896,2 -2,2 H 2 c -1.105,0 -2,-0.896 -2,-2 z" /></g><path
           id="path90"
           style="fill:#373535;fill-opacity:1;fill-rule:nonzero;stroke:none"
           d="m 149.847,75.813 h 8.954 v 21.613 h -8.954 z" /></g></g></g></svg>