<?xml version="1.0" encoding="UTF-8" standalone="no"?>
<svg
   xmlns:dc="http://purl.org/dc/elements/1.1/"
   xmlns:cc="http://creativecommons.org/ns#"
   xmlns:rdf="http://www.w3.org/1999/02/22-rdf-syntax-ns#"
   xmlns:svg="http://www.w3.org/2000/svg"
   xmlns="http://www.w3.org/2000/svg"
   viewBox="0 0 146.66667 146.66667"
   height="146.66667"
   width="146.66667"
   xml:space="preserve"
   id="svg2"
   version="1.1"><metadata
     id="metadata8"><rdf:RDF><cc:Work
         rdf:about=""><dc:format>image/svg+xml</dc:format><dc:type
           rdf:resource="http://purl.org/dc/dcmitype/StillImage" /></cc:Work></rdf:RDF></metadata><defs
     id="defs6"><clipPath
       id="clipPath18"
       clipPathUnits="userSpaceOnUse"><path
         id="path16"
         d="M 0,110 H 110 V 0 H 0 Z" /></clipPath></defs><g
     transform="matrix(1.3333333,0,0,-1.3333333,0,146.66667)"
     id="g10"><g
       id="g12"><g
         clip-path="url(#clipPath18)"
         id="g14"><g
           transform="translate(68.7202,88.1759)"
           id="g20"><path
             id="path22"
             style="fill:#373535;fill-opacity:1;fill-rule:nonzero;stroke:none"
             d="m 0,0 c 0,-1.105 0.895,-2 2,-2 h 23.007 c 1.105,0 2,0.895 2,2 v 4.954 c 0,1.104 -0.895,2 -2,2 H 2 c -1.105,0 -2,-0.896 -2,-2 z" /></g><path
           id="path24"
           style="fill:#373535;fill-opacity:1;fill-rule:nonzero;stroke:none"
           d="m 68.72,68.141 h 27.007 v 8.954 H 68.72 Z" /><g
           transform="translate(68.7202,70.1225)"
           id="g26"><path
             id="path28"
             style="fill:#373535;fill-opacity:1;fill-rule:nonzero;stroke:none"
             d="m 0,0 c 0,-1.105 0.895,-2 2,-2 h 4.954 c 1.104,0 2,0.895 2,2 v 23.007 c 0,1.105 -0.896,2 -2,2 H 2 c -1.105,0 -2,-0.895 -2,-2 z" /></g><g
           transform="translate(86.7736,70.1225)"
           id="g30"><path
             id="path32"
             style="fill:#373535;fill-opacity:1;fill-rule:nonzero;stroke:none"
             d="m 0,0 c 0,-1.105 0.895,-2 2,-2 h 4.954 c 1.104,0 2,0.895 2,2 v 23.007 c 0,1.105 -0.896,2 -2,2 H 2 c -1.105,0 -2,-0.895 -2,-2 z" /></g><g
           transform="translate(86.7736,16.1768)"
           id="g34"><path
             id="path36"
             style="fill:#373535;fill-opacity:1;fill-rule:nonzero;stroke:none"
             d="m 0,0 c 0,-1.105 0.895,-2 2,-2 h 4.954 c 1.104,0 2,0.895 2,2 v 17.676 c 0,1.104 -0.896,2 -2,2 H 2 c -1.105,0 -2,-0.896 -2,-2 z" /></g><path
           id="path38"
           style="fill:#373535;fill-opacity:1;fill-rule:nonzero;stroke:none"
           d="m 68.733,14.177 h 8.954 v 27.007 h -8.954 z" /><path
           id="path40"
           style="fill:#373535;fill-opacity:1;fill-rule:nonzero;stroke:none"
           d="m 50.692,14.177 h 8.954 v 27.007 h -8.954 z" /><g
           transform="translate(32.6508,16.1768)"
           id="g42"><path
             id="path44"
             style="fill:#373535;fill-opacity:1;fill-rule:nonzero;stroke:none"
             d="m 0,0 c 0,-1.105 0.895,-2 2,-2 h 4.954 c 1.104,0 2,0.895 2,2 v 23.007 c 0,1.105 -0.896,2 -2,2 H 2 c -1.105,0 -2,-0.895 -2,-2 z" /></g><g
           transform="translate(14.6098,16.1768)"
           id="g46"><path
             id="path48"
             style="fill:#373535;fill-opacity:1;fill-rule:nonzero;stroke:none"
             d="m 0,0 c 0,-1.105 0.895,-2 2,-2 h 4.954 c 1.104,0 2,0.895 2,2 v 23.007 c 0,1.105 -0.896,2 -2,2 H 2 c -1.105,0 -2,-0.895 -2,-2 z" /></g><g
           transform="translate(14.6098,70.1225)"
           id="g50"><path
             id="path52"
             style="fill:#373535;fill-opacity:1;fill-rule:nonzero;stroke:none"
             d="m 0,0 c 0,-1.105 0.895,-2 2,-2 h 4.954 c 1.104,0 2,0.895 2,2 v 23.007 c 0,1.105 -0.896,2 -2,2 H 2 c -1.105,0 -2,-0.895 -2,-2 z" /></g><g
           transform="translate(68.7327,16.1768)"
           id="g54"><path
             id="path56"
             style="fill:#373535;fill-opacity:1;fill-rule:nonzero;stroke:none"
             d="m 0,0 c 0,-1.105 0.895,-2 2,-2 h 23.007 c 1.105,0 2,0.895 2,2 v 4.954 c 0,1.104 -0.895,2 -2,2 H 2 c -1.105,0 -2,-0.896 -2,-2 z" /></g><g
           transform="translate(45.2426,16.1768)"
           id="g58"><path
             id="path60"
             style="fill:#373535;fill-opacity:1;fill-rule:nonzero;stroke:none"
             d="m 0,0 c 0,-1.105 0.895,-2 2,-2 h 23.007 c 1.105,0 2,0.895 2,2 v 4.954 c 0,1.104 -0.895,2 -2,2 H 2 c -1.105,0 -2,-0.896 -2,-2 z" /></g><g
           transform="translate(14.5974,16.1768)"
           id="g62"><path
             id="path64"
             style="fill:#373535;fill-opacity:1;fill-rule:nonzero;stroke:none"
             d="m 0,0 c 0,-1.105 0.895,-2 2,-2 h 23.007 c 1.105,0 2,0.895 2,2 v 4.954 c 0,1.104 -0.895,2 -2,2 H 2 c -1.105,0 -2,-0.896 -2,-2 z" /></g><g
           transform="translate(35.1078,16.1768)"
           id="g66"><path
             id="path68"
             style="fill:#373535;fill-opacity:1;fill-rule:nonzero;stroke:none"
             d="m 0,0 c 0,-1.105 0.895,-2 2,-2 h 23.007 c 1.105,0 2,0.895 2,2 v 4.954 c 0,1.104 -0.895,2 -2,2 H 2 c -1.105,0 -2,-0.896 -2,-2 z" /></g><path
           id="path70"
           style="fill:#373535;fill-opacity:1;fill-rule:nonzero;stroke:none"
           d="m 14.597,32.23 h 27.007 v 8.954 H 14.597 Z" /><path
           id="path72"
           style="fill:#373535;fill-opacity:1;fill-rule:nonzero;stroke:none"
           d="M 14.597,50.176 H 59.645 V 59.13 H 14.597 Z" /><path
           id="path74"
           style="fill:#373535;fill-opacity:1;fill-rule:nonzero;stroke:none"
           d="m 14.61,68.141 h 47.505 v 8.954 H 14.61 Z" /><path
           id="path76"
           style="fill:#373535;fill-opacity:1;fill-rule:nonzero;stroke:none"
           d="m 68.733,50.176 h 8.954 v 8.954 h -8.954 z" /><path
           id="path78"
           style="fill:#373535;fill-opacity:1;fill-rule:nonzero;stroke:none"
           d="m 86.774,50.176 h 8.954 v 8.954 h -8.954 z" /><g
           transform="translate(15.4594,88.1759)"
           id="g80"><path
             id="path82"
             style="fill:#373535;fill-opacity:1;fill-rule:nonzero;stroke:none"
             d="m 0,0 c 0,-1.105 0.895,-2 2,-2 h 76.268 c 1.104,0 2,0.895 2,2 v 4.954 c 0,1.104 -0.896,2 -2,2 H 2 c -1.105,0 -2,-0.896 -2,-2 z" /></g><path
           id="path84"
           style="fill:#373535;fill-opacity:1;fill-rule:nonzero;stroke:none"
           d="m 86.774,19.552 h 8.954 v 21.613 h -8.954 z" /></g></g></g></svg>